<svg xmlns="http://www.w3.org/2000/svg" width="370" height="270" fill="none" viewBox="0 0 370 270">
  <path fill="#FFE8E0" fill-rule="evenodd" d="M-23.774.016c148.019-1.122 303.205 58.353 348.801 199.178 45.484 140.481-44.754 280.674-166.279 364.551-111.682 77.082-256.886 81.957-368.198 4.343-118.618-82.708-192.146-226.277-147.22-363.727C-311.948 67.535-167.719 1.107-23.774.016Z" clip-rule="evenodd"/>
  <path stroke="#FF4201" stroke-width="2" d="M7.226 46.016c148.019-1.122 303.205 58.353 348.801 199.178 45.484 140.481-44.754 280.674-166.279 364.551-111.682 77.082-256.886 81.957-368.198 4.343-118.618-82.708-192.146-226.277-147.22-363.727C-280.948 113.535-136.719 47.107 7.226 46.016Z" clip-rule="evenodd"/>
</svg>
