<svg xmlns="http://www.w3.org/2000/svg" width="329" height="313" fill="none" viewBox="0 0 329 313">
  <path fill="#FFE8E0" fill-rule="evenodd" d="M346.226-361.984c148.019-1.122 303.205 58.353 348.801 199.178 45.484 140.481-44.754 280.674-166.279 364.551-111.682 77.082-256.886 81.957-368.198 4.343C41.932 123.38-31.596-20.189 13.33-157.639c44.722-136.826 188.95-203.254 332.896-204.345Z" clip-rule="evenodd"/>
  <path stroke="#FF4201" stroke-width="2" d="M399.226-311.984c148.019-1.122 303.205 58.353 348.801 199.178 45.484 140.481-44.754 280.674-166.279 364.551-111.682 77.082-256.886 81.957-368.198 4.343C94.932 173.38 21.404 29.811 66.33-107.639c44.722-136.826 188.951-203.254 332.896-204.345Z" clip-rule="evenodd"/>
</svg>
