<svg xmlns="http://www.w3.org/2000/svg" width="243" height="243" fill="none" viewBox="0 0 243 243">
  <g filter="url(#a)">
    <rect width="123" height="123" x="60" y="30" fill="#fff" rx="35"/>
  </g>
  <path fill="#FF4201" d="M150.6 94.7v25.9c0 1.963-.78 3.845-2.167 5.233a7.404 7.404 0 0 1-10.466 0 7.404 7.404 0 0 1-2.167-5.233v-18.5h-7.4v-37A11.099 11.099 0 0 1 139.5 54h11.1v40.7ZM98.8 91a7.4 7.4 0 0 1-7.4-7.4V57.7a3.7 3.7 0 1 1 7.4 0v14.8h3.7V57.7a3.7 3.7 0 0 1 7.4 0v14.8h3.7V57.7a3.7 3.7 0 0 1 7.4 0v25.9a7.403 7.403 0 0 1-7.4 7.4v29.6c0 1.963-.78 3.845-2.167 5.233a7.404 7.404 0 0 1-10.466 0A7.402 7.402 0 0 1 98.8 120.6V91Z"/>
  <defs>
    <filter id="a" width="243" height="243" x="0" y="0" color-interpolation-filters="sRGB" filterUnits="userSpaceOnUse">
      <feFlood flood-opacity="0" result="BackgroundImageFix"/>
      <feColorMatrix in="SourceAlpha" result="hardAlpha" values="0 0 0 0 0 0 0 0 0 0 0 0 0 0 0 0 0 0 127 0"/>
      <feOffset dy="30"/>
      <feGaussianBlur stdDeviation="30"/>
      <feComposite in2="hardAlpha" operator="out"/>
      <feColorMatrix values="0 0 0 0 0.3 0 0 0 0 0.0776471 0 0 0 0 0 0 0 0 0.26 0"/>
      <feBlend in2="BackgroundImageFix" result="effect1_dropShadow_103_1210"/>
      <feBlend in="SourceGraphic" in2="effect1_dropShadow_103_1210" result="shape"/>
    </filter>
  </defs>
</svg>
