<svg xmlns="http://www.w3.org/2000/svg" width="26" height="26" fill="none" viewBox="0 0 26 26">
  <path stroke="#C9C5C4" stroke-linecap="round" stroke-linejoin="round" stroke-width="1.5" d="m22.26 9.25-5.334-5.333m5.333 5.333-6.664 6.664c-.879.879-1.945 1.572-3.168 1.783-1.236.213-2.77.284-3.501-.447-.731-.732-.66-2.265-.447-3.5.21-1.225.904-2.29 1.782-3.169l6.665-6.664m5.333 5.333s4-4 1.334-6.667c-2.667-2.666-6.667 1.333-6.667 1.333M24.333 13c0 8.666-2.666 11.333-11.333 11.333S1.667 21.667 1.667 13 4.333 1.666 13 1.666"/>
</svg>
